<svg width="24" height="24" viewBox="0 0 24 24" fill="#ffffff" xmlns="http://www.w3.org/2000/svg">
<path d="M5.65099 19H18.349C18.012 17.2 17.326 15.79 16.404 14.81C15.318 13.65 13.838 13 12 13C10.162 13 8.68299 13.65 7.59599 14.81C6.67399 15.79 5.98799 17.2 5.65099 19ZM6.13699 13.44C7.62699 11.85 9.64799 11 12 11C14.352 11 16.373 11.85 17.863 13.44C19.34 15.02 20.229 17.24 20.495 19.9L20.605 21H3.39499L3.50499 19.9C3.77099 17.24 4.65999 15.02 6.13699 13.44ZM12 4C10.895 4 9.99999 4.9 9.99999 6C9.99999 7.1 10.895 8 12 8C13.105 8 14 7.1 14 6C14 4.9 13.105 4 12 4ZM7.99999 6C7.99999 3.79 9.79099 2 12 2C14.209 2 16 3.79 16 6C16 8.21 14.209 10 12 10C9.79099 10 7.99999 8.21 7.99999 6Z" fill="black"/>
</svg>
